<svg width="204" height="50" viewBox="0 0 204 50" fill="none" xmlns="http://www.w3.org/2000/svg">
<path fill-rule="evenodd" clip-rule="evenodd" d="M37.5 5V0H71.5V5H37.5ZM37.5 50L52 17H57L71.5 50H65.5L54.5 24L43 50H37.5ZM84 50V17H90L100 32.5L110 17H116.5V50H111V26L100 42L89 26V50H84ZM143 17L128.5 50H134.5L137.5 42H153.5L157 50H162.5L148 17H143ZM175 50V17H180.5L198 40V17H204V50H198L180.5 28V50H175ZM145.5 24L140 37H151.5L145.5 24ZM19 50V36.5L32 17H25.5L16 31.5L7 17H0L13 36.5V50H19Z" fill="black"/>
</svg>
