<svg width="266" height="90" viewBox="0 0 266 90" fill="none" xmlns="http://www.w3.org/2000/svg">
<circle cx="45" cy="45" r="44.5" stroke="white"/>
<path d="M63 45.5L36.75 60.6554L36.75 30.3446L63 45.5Z" fill="white"/>
<path d="M118.08 50.26C115.947 50.26 114.193 49.56 112.82 48.16C111.447 46.7733 110.76 45.0533 110.76 43C110.76 40.9467 111.447 39.2267 112.82 37.84C114.193 36.44 115.947 35.74 118.08 35.74C119.347 35.74 120.52 36.0467 121.6 36.66C122.68 37.2733 123.52 38.1 124.12 39.14L122.5 40.08C122.1 39.3067 121.5 38.6933 120.7 38.24C119.913 37.7733 119.04 37.54 118.08 37.54C116.453 37.54 115.133 38.06 114.12 39.1C113.107 40.1267 112.6 41.4267 112.6 43C112.6 44.56 113.107 45.8533 114.12 46.88C115.133 47.92 116.453 48.44 118.08 48.44C119.04 48.44 119.913 48.2133 120.7 47.76C121.5 47.2933 122.1 46.68 122.5 45.92L124.12 46.84C123.533 47.88 122.7 48.7133 121.62 49.34C120.553 49.9533 119.373 50.26 118.08 50.26ZM134.448 48.74C133.434 49.7533 132.188 50.26 130.708 50.26C129.228 50.26 127.981 49.7533 126.968 48.74C125.954 47.7267 125.448 46.48 125.448 45C125.448 43.52 125.954 42.2733 126.968 41.26C127.981 40.2467 129.228 39.74 130.708 39.74C132.188 39.74 133.434 40.2467 134.448 41.26C135.474 42.2867 135.987 43.5333 135.987 45C135.987 46.4667 135.474 47.7133 134.448 48.74ZM130.708 48.56C131.708 48.56 132.548 48.22 133.228 47.54C133.908 46.86 134.248 46.0133 134.248 45C134.248 43.9867 133.908 43.14 133.228 42.46C132.548 41.78 131.708 41.44 130.708 41.44C129.721 41.44 128.888 41.78 128.208 42.46C127.528 43.14 127.188 43.9867 127.188 45C127.188 46.0133 127.528 46.86 128.208 47.54C128.888 48.22 129.721 48.56 130.708 48.56ZM139.779 40V41.68C140.352 40.44 141.392 39.82 142.899 39.82V41.64C142.045 41.6 141.312 41.8267 140.699 42.32C140.085 42.8133 139.779 43.6067 139.779 44.7V50H138.039V40H139.779ZM150.121 39.74C151.521 39.74 152.715 40.2533 153.701 41.28C154.688 42.3067 155.181 43.5467 155.181 45C155.181 46.4667 154.688 47.7133 153.701 48.74C152.728 49.7533 151.535 50.26 150.121 50.26C148.468 50.26 147.208 49.6 146.341 48.28V54H144.601V40H146.341V41.72C147.208 40.4 148.468 39.74 150.121 39.74ZM149.901 48.58C150.901 48.58 151.741 48.24 152.421 47.56C153.101 46.8533 153.441 46 153.441 45C153.441 43.9867 153.101 43.14 152.421 42.46C151.741 41.7667 150.901 41.42 149.901 41.42C148.888 41.42 148.041 41.7667 147.361 42.46C146.681 43.14 146.341 43.9867 146.341 45C146.341 46 146.681 46.8533 147.361 47.56C148.041 48.24 148.888 48.58 149.901 48.58ZM165.698 48.74C164.684 49.7533 163.438 50.26 161.958 50.26C160.478 50.26 159.231 49.7533 158.218 48.74C157.204 47.7267 156.698 46.48 156.698 45C156.698 43.52 157.204 42.2733 158.218 41.26C159.231 40.2467 160.478 39.74 161.958 39.74C163.438 39.74 164.684 40.2467 165.698 41.26C166.724 42.2867 167.237 43.5333 167.237 45C167.237 46.4667 166.724 47.7133 165.698 48.74ZM161.958 48.56C162.958 48.56 163.798 48.22 164.478 47.54C165.158 46.86 165.498 46.0133 165.498 45C165.498 43.9867 165.158 43.14 164.478 42.46C163.798 41.78 162.958 41.44 161.958 41.44C160.971 41.44 160.138 41.78 159.458 42.46C158.778 43.14 158.438 43.9867 158.438 45C158.438 46.0133 158.778 46.86 159.458 47.54C160.138 48.22 160.971 48.56 161.958 48.56ZM171.029 40V41.68C171.602 40.44 172.642 39.82 174.149 39.82V41.64C173.295 41.6 172.562 41.8267 171.949 42.32C171.335 42.8133 171.029 43.6067 171.029 44.7V50H169.289V40H171.029ZM183.584 41.72V40H185.324V50H183.584V48.28C182.731 49.6 181.471 50.26 179.804 50.26C178.391 50.26 177.198 49.7533 176.224 48.74C175.238 47.7133 174.744 46.4667 174.744 45C174.744 43.5467 175.238 42.3067 176.224 41.28C177.211 40.2533 178.404 39.74 179.804 39.74C181.471 39.74 182.731 40.4 183.584 41.72ZM180.024 48.58C181.038 48.58 181.884 48.24 182.564 47.56C183.244 46.8533 183.584 46 183.584 45C183.584 43.9867 183.244 43.14 182.564 42.46C181.884 41.7667 181.038 41.42 180.024 41.42C179.024 41.42 178.184 41.7667 177.504 42.46C176.824 43.14 176.484 43.9867 176.484 45C176.484 46 176.824 46.8533 177.504 47.56C178.184 48.24 179.024 48.58 180.024 48.58ZM193.401 40V41.68H190.741V47.1C190.741 47.5933 190.834 47.9467 191.021 48.16C191.221 48.36 191.521 48.4667 191.921 48.48C192.321 48.48 192.814 48.4667 193.401 48.44V50C191.867 50.2 190.747 50.0733 190.041 49.62C189.347 49.1667 189.001 48.3267 189.001 47.1V41.68H187.021V40H189.001V37.72L190.741 37.2V40H193.401ZM204.553 45.8H196.173C196.346 46.68 196.753 47.3733 197.393 47.88C198.033 48.3733 198.833 48.62 199.793 48.62C201.113 48.62 202.073 48.1333 202.673 47.16L204.153 48C203.166 49.5067 201.699 50.26 199.753 50.26C198.179 50.26 196.886 49.7667 195.873 48.78C194.886 47.7667 194.393 46.5067 194.393 45C194.393 43.48 194.879 42.2267 195.853 41.24C196.826 40.24 198.086 39.74 199.633 39.74C201.099 39.74 202.293 40.26 203.213 41.3C204.146 42.3133 204.613 43.5533 204.613 45.02C204.613 45.2733 204.593 45.5333 204.553 45.8ZM199.633 41.38C198.713 41.38 197.939 41.64 197.313 42.16C196.699 42.68 196.319 43.3867 196.173 44.28H202.853C202.706 43.36 202.339 42.6467 201.753 42.14C201.166 41.6333 200.459 41.38 199.633 41.38ZM222.413 39.74C223.546 39.74 224.453 40.1067 225.133 40.84C225.826 41.5733 226.173 42.5533 226.173 43.78V50H224.433V43.84C224.433 43.08 224.233 42.4867 223.833 42.06C223.446 41.62 222.913 41.4 222.233 41.4C221.46 41.4 220.853 41.66 220.413 42.18C219.986 42.6867 219.773 43.44 219.773 44.44V50H218.033V43.84C218.033 43.08 217.84 42.4867 217.453 42.06C217.08 41.62 216.566 41.4 215.913 41.4C215.153 41.4 214.533 41.6667 214.053 42.2C213.586 42.72 213.353 43.4667 213.353 44.44V50H211.613V40H213.353V41.34C214.033 40.2733 215.026 39.74 216.333 39.74C217.68 39.74 218.66 40.3067 219.273 41.44C219.966 40.3067 221.013 39.74 222.413 39.74ZM237.026 48.74C236.012 49.7533 234.766 50.26 233.286 50.26C231.806 50.26 230.559 49.7533 229.546 48.74C228.532 47.7267 228.026 46.48 228.026 45C228.026 43.52 228.532 42.2733 229.546 41.26C230.559 40.2467 231.806 39.74 233.286 39.74C234.766 39.74 236.012 40.2467 237.026 41.26C238.052 42.2867 238.566 43.5333 238.566 45C238.566 46.4667 238.052 47.7133 237.026 48.74ZM233.286 48.56C234.286 48.56 235.126 48.22 235.806 47.54C236.486 46.86 236.826 46.0133 236.826 45C236.826 43.9867 236.486 43.14 235.806 42.46C235.126 41.78 234.286 41.44 233.286 41.44C232.299 41.44 231.466 41.78 230.786 42.46C230.106 43.14 229.766 43.9867 229.766 45C229.766 46.0133 230.106 46.86 230.786 47.54C231.466 48.22 232.299 48.56 233.286 48.56ZM244.086 48.14L247.226 40H249.106L245.106 50H243.066L239.066 40H240.946L244.086 48.14ZM251.458 38.18C251.124 38.18 250.844 38.0667 250.618 37.84C250.391 37.6133 250.278 37.34 250.278 37.02C250.278 36.7 250.391 36.4267 250.618 36.2C250.844 35.96 251.124 35.84 251.458 35.84C251.778 35.84 252.051 35.96 252.278 36.2C252.504 36.4267 252.618 36.7 252.618 37.02C252.618 37.34 252.504 37.6133 252.278 37.84C252.051 38.0667 251.778 38.18 251.458 38.18ZM252.318 50H250.578V40H252.318V50ZM264.572 45.8H256.192C256.366 46.68 256.772 47.3733 257.412 47.88C258.052 48.3733 258.852 48.62 259.812 48.62C261.132 48.62 262.092 48.1333 262.692 47.16L264.172 48C263.186 49.5067 261.719 50.26 259.772 50.26C258.199 50.26 256.906 49.7667 255.892 48.78C254.906 47.7667 254.412 46.5067 254.412 45C254.412 43.48 254.899 42.2267 255.872 41.24C256.846 40.24 258.106 39.74 259.652 39.74C261.119 39.74 262.312 40.26 263.232 41.3C264.166 42.3133 264.632 43.5533 264.632 45.02C264.632 45.2733 264.612 45.5333 264.572 45.8ZM259.652 41.38C258.732 41.38 257.959 41.64 257.332 42.16C256.719 42.68 256.339 43.3867 256.192 44.28H262.872C262.726 43.36 262.359 42.6467 261.772 42.14C261.186 41.6333 260.479 41.38 259.652 41.38Z" fill="white"/>
</svg>
