<svg width="12" height="20" viewBox="0 0 12 20" fill="none" xmlns="http://www.w3.org/2000/svg">
<path d="M8.6601 0C7.2099 0 5.8191 0.534001 4.79365 1.48453C3.76821 2.43505 3.19212 3.72425 3.19212 5.06849V7.89041H0.26601C0.119096 7.89041 0 8.00081 0 8.13699V11.863C0 11.9992 0.119097 12.1096 0.26601 12.1096H3.19212V19.7534C3.19212 19.8896 3.31121 20 3.45813 20H7.47783C7.62474 20 7.74384 19.8896 7.74384 19.7534V12.1096H10.6959C10.8179 12.1096 10.9243 12.0326 10.9539 11.9228L11.9589 8.19679C12.0008 8.04116 11.8739 7.89041 11.7008 7.89041H7.74384V5.06849C7.74384 4.84324 7.84038 4.62721 8.01221 4.46794C8.18404 4.30866 8.41709 4.21918 8.6601 4.21918H11.734C11.8809 4.21918 12 4.10878 12 3.9726V0.246575C12 0.110396 11.8809 0 11.734 0H8.6601Z" fill="white"/>
</svg>
