<svg width="23" height="20" viewBox="0 0 23 20" fill="none" xmlns="http://www.w3.org/2000/svg">
<path d="M22.9777 2.73596C23.0461 2.63674 22.9452 2.50863 22.8359 2.55277C22.0591 2.86641 21.2473 3.07803 20.4193 3.18232C21.3413 2.6085 22.0527 1.735 22.4473 0.700848C22.4875 0.5955 22.377 0.501421 22.2818 0.556225C21.4249 1.04923 20.5007 1.40424 19.5407 1.60869C19.5005 1.61725 19.4591 1.603 19.4308 1.57198C18.7104 0.78006 17.7621 0.252783 16.7283 0.0705742C15.6727 -0.115462 14.5878 0.0687402 13.6436 0.594292C12.6994 1.11984 11.9493 1.95702 11.511 2.97451C11.0943 3.94196 10.9818 5.02039 11.1874 6.0561C11.2033 6.13646 11.1429 6.21233 11.0643 6.20724C9.19646 6.08638 7.37146 5.56882 5.70176 4.68572C4.0363 3.80486 2.56149 2.57945 1.36715 1.08505C1.31414 1.01873 1.21368 1.02731 1.17506 1.10366C0.803425 1.83833 0.608845 2.65718 0.609373 3.48942C0.607864 4.31784 0.803012 5.13379 1.17744 5.86463C1.55187 6.59546 2.09396 7.21851 2.75545 7.67829C2.05393 7.65841 1.3661 7.47774 0.740553 7.15017C0.659937 7.10795 0.563237 7.16806 0.56743 7.26195C0.616211 8.3543 1.00115 9.45094 1.66745 10.2923C2.37651 11.1877 3.36066 11.8004 4.45344 12.0269C4.03278 12.1602 3.59604 12.2305 3.15636 12.2357C2.91706 12.2328 2.67823 12.2144 2.44124 12.1806C2.35337 12.1681 2.28162 12.2551 2.31238 12.3417C2.63832 13.2599 3.21414 14.0612 3.97125 14.646C4.78069 15.2713 5.75709 15.6182 6.76459 15.6384C5.0633 17.033 2.96284 17.7941 0.798039 17.8004C0.575598 17.8011 0.353256 17.7936 0.131438 17.7779C0.0064372 17.769 -0.0510526 17.9425 0.0566937 18.0091C2.16594 19.3131 4.57676 20.0024 7.0358 19.9992C8.85134 20.0189 10.6524 19.6614 12.3339 18.9478C14.0154 18.2342 15.5435 17.1787 16.829 15.8429C18.1145 14.5072 19.1316 12.9179 19.8209 11.1681C20.5102 9.41824 20.858 7.54283 20.8438 5.65142V5.06199C20.8438 5.02321 20.8614 4.98674 20.8911 4.96337C21.6909 4.33425 22.3943 3.58315 22.9777 2.73596Z" fill="white"/>
</svg>
